<?xml version="1.0" encoding="UTF-8"?><svg id="Layer_1" xmlns="http://www.w3.org/2000/svg" viewBox="0 0 238.71 211.83"><defs><style>.cls-1{fill:#ffe500;}.cls-2{fill:#3aaa35;}</style></defs><rect class="cls-1" y="91.09" width="238.7" height="70"/><g><path class="cls-2" d="M24.22,8.06c-2.81,0-5.83,.86-5.83,3.6,0,6.12,24.34-.29,24.34,15.77,0,6.12-3.6,13.39-18.51,13.39-16.78,0-17.71-11.02-17.71-13.1h11.16c0,3.82,3.38,4.97,7.2,4.97,3.53,0,6.62-1.15,6.62-4.03,0-2.45-2.88-3.1-5.98-3.53l-2.16-.29c-8.57-1.15-16.06-3.1-16.06-12.38C7.3,4.25,14.86,0,24.36,0c15.55,0,17.14,9.22,17.14,12.31h-10.87c0-2.74-2.59-4.25-6.41-4.25Z"/><path class="cls-2" d="M64.4,0c14.62,0,17.07,7.2,17.07,12.96v21.46c0,2.88,.86,5.9,.86,5.9h-11.74v-3.6c-1.73,1.8-5.26,4.1-12.1,4.1-8.21,0-13.83-4.54-13.83-12.53,0-9.07,8.86-11.31,12.53-11.81l13.11-1.87v-1.37c0-2.74-1.3-4.61-6.62-4.61-6.55,0-6.98,3.31-6.98,4.9h-10.73c.14-5.83,3.31-13.54,18.43-13.54Zm5.91,22.25s-6.91,.86-9.65,1.44c-2.66,.5-4.61,2.09-4.61,4.61,0,1.8,1.15,4.46,5.4,4.46,6.55,0,8.86-4.32,8.86-7.7v-2.81Z"/><path class="cls-2" d="M109.97,40.32h-14.26L82.25,.5h12.1l8.71,28.73L111.7,.5h11.74l-13.47,39.82Z"/><path class="cls-2" d="M122.43,20.45c0-12.31,8.21-20.45,19.66-20.45,12.38,0,19.3,8.78,19.3,21.46v1.37h-27.36c0,4.39,2.09,9,8.14,9s7.42-3.89,7.56-5.18l10.94,.22c-.58,4.97-5.18,13.97-18.87,13.97-12.75,0-19.37-8.5-19.37-20.38Zm26.93-4.97c-.43-4.9-3.74-6.77-7.2-6.77-4.1,0-7.34,2.81-7.78,6.77h14.98Z"/><path class="cls-2" d="M6.51,71.45c0-13.54,8.21-20.45,19.66-20.45s19.73,6.91,19.73,20.45-8.21,20.38-19.73,20.38-19.66-6.91-19.66-20.38Zm11.31,0c0,8.14,3.67,11.38,8.35,11.38s8.42-3.24,8.42-11.38-3.6-11.45-8.42-11.45-8.35,3.24-8.35,11.45Z"/><path class="cls-2" d="M74.19,91.32v-3.53c-1.94,2.02-5.47,4.03-11.02,4.03-9.29,0-13.83-5.9-13.83-13.68v-26.64h11.09v24.55c0,4.54,2.23,6.77,6.05,6.77,4.75,0,7.56-3.17,7.56-8.42v-22.9h11.09v39.82h-10.94Z"/><path class="cls-2" d="M110.4,62.52c-5.47,0-8.71,2.09-8.71,7.63v21.17h-11.09V51.5h10.73v5.04c1.94-3.31,5.76-5.04,9.72-5.04h3.46v11.09s-2.59-.07-4.1-.07Z"/><path class="cls-2" d="M24.22,119.06c-2.81,0-5.83,.86-5.83,3.6,0,6.12,24.34-.29,24.34,15.77,0,6.12-3.6,13.39-18.51,13.39-16.78,0-17.71-11.02-17.71-13.11h11.16c0,3.82,3.38,4.97,7.2,4.97,3.53,0,6.62-1.15,6.62-4.03,0-2.45-2.88-3.1-5.98-3.53l-2.16-.29c-8.57-1.15-16.06-3.1-16.06-12.38,0-8.21,7.56-12.46,17.07-12.46,15.55,0,17.14,9.22,17.14,12.31h-10.87c0-2.74-2.59-4.25-6.41-4.25Z"/><path class="cls-2" d="M64.4,111c14.62,0,17.07,7.2,17.07,12.96v21.46c0,2.88,.86,5.9,.86,5.9h-11.74v-3.6c-1.73,1.8-5.26,4.1-12.1,4.1-8.21,0-13.83-4.54-13.83-12.53,0-9.07,8.86-11.3,12.53-11.81l13.11-1.87v-1.37c0-2.74-1.3-4.61-6.62-4.61-6.55,0-6.98,3.31-6.98,4.9h-10.73c.14-5.83,3.31-13.54,18.43-13.54Zm5.91,22.25s-6.91,.86-9.65,1.44c-2.66,.5-4.61,2.09-4.61,4.61,0,1.8,1.15,4.46,5.4,4.46,6.55,0,8.86-4.32,8.86-7.71v-2.81Z"/><path class="cls-2" d="M101.04,120.43v30.89h-11.09v-30.89h-6.62v-8.93h6.62v-3.82c0-6.55,3.67-10.15,11.3-10.15,3.89,0,8.21,.22,8.21,.22v9.07s-3.1-.14-5.69-.14c-1.51,0-2.74,.36-2.74,2.3v2.52h8.42v8.93h-8.42Z"/><path class="cls-2" d="M109.54,131.45c0-12.31,8.21-20.45,19.66-20.45,12.38,0,19.3,8.78,19.3,21.46v1.37h-27.36c0,4.39,2.09,9,8.14,9s7.42-3.89,7.56-5.18l10.94,.22c-.58,4.97-5.18,13.97-18.87,13.97-12.75,0-19.37-8.5-19.37-20.38Zm26.93-4.97c-.43-4.9-3.74-6.77-7.2-6.77-4.1,0-7.34,2.81-7.78,6.77h14.98Z"/><path class="cls-2" d="M171.96,122.52c-5.47,0-8.71,2.09-8.71,7.63v21.17h-11.09v-39.82h10.73v5.04c1.94-3.31,5.76-5.04,9.72-5.04h3.46v11.09s-2.59-.07-4.1-.07Z"/><path class="cls-2" d="M24.22,179.06c-2.81,0-5.83,.86-5.83,3.6,0,6.12,24.34-.29,24.34,15.77,0,6.12-3.6,13.39-18.51,13.39-16.78,0-17.71-11.02-17.71-13.11h11.16c0,3.82,3.38,4.97,7.2,4.97,3.53,0,6.62-1.15,6.62-4.03,0-2.45-2.88-3.1-5.98-3.53l-2.16-.29c-8.57-1.15-16.06-3.1-16.06-12.38,0-8.21,7.56-12.46,17.07-12.46,15.55,0,17.14,9.22,17.14,12.31h-10.87c0-2.74-2.59-4.25-6.41-4.25Z"/><path class="cls-2" d="M59.64,211.61c-9.29,0-10.37-4.54-10.37-11.95v-19.23h-5.76v-8.93h5.76v-10.58h11.16v10.58h8.42v8.93h-8.42v18.65c0,2.45,.72,3.1,3.1,3.1s4.83-.22,4.83-.22v9.22s-3.67,.43-8.71,.43Z"/><path class="cls-2" d="M91.61,182.52c-5.47,0-8.71,2.09-8.71,7.63v21.17h-11.09v-39.82h10.73v5.04c1.94-3.31,5.76-5.04,9.72-5.04h3.46v11.09s-2.59-.07-4.1-.07Z"/><path class="cls-2" d="M96.14,191.45c0-12.31,8.21-20.45,19.66-20.45,12.38,0,19.3,8.78,19.3,21.46v1.37h-27.36c0,4.39,2.09,9,8.14,9s7.42-3.89,7.56-5.18l10.94,.22c-.58,4.97-5.18,13.97-18.87,13.97-12.75,0-19.37-8.5-19.37-20.38Zm26.93-4.97c-.43-4.9-3.74-6.77-7.2-6.77-4.1,0-7.34,2.81-7.78,6.77h14.98Z"/><path class="cls-2" d="M136.97,191.45c0-12.31,8.21-20.45,19.66-20.45,12.38,0,19.3,8.78,19.3,21.46v1.37h-27.36c0,4.39,2.09,9,8.14,9s7.42-3.89,7.56-5.18l10.94,.22c-.58,4.97-5.18,13.97-18.87,13.97-12.75,0-19.37-8.5-19.37-20.38Zm26.93-4.97c-.43-4.9-3.74-6.77-7.2-6.77-4.1,0-7.34,2.81-7.78,6.77h14.98Z"/><path class="cls-2" d="M192.12,211.61c-9.29,0-10.37-4.54-10.37-11.95v-19.23h-5.76v-8.93h5.76v-10.58h11.16v10.58h8.42v8.93h-8.42v18.65c0,2.45,.72,3.1,3.1,3.1s4.83-.22,4.83-.22v9.22s-3.67,.43-8.71,.43Z"/><path class="cls-2" d="M220.2,179.06c-2.81,0-5.83,.86-5.83,3.6,0,6.12,24.34-.29,24.34,15.77,0,6.12-3.6,13.39-18.51,13.39-16.78,0-17.71-11.02-17.71-13.11h11.16c0,3.82,3.38,4.97,7.2,4.97,3.53,0,6.62-1.15,6.62-4.03,0-2.45-2.88-3.1-5.98-3.53l-2.16-.29c-8.57-1.15-16.06-3.1-16.06-12.38,0-8.21,7.56-12.46,17.07-12.46,15.55,0,17.14,9.22,17.14,12.31h-10.87c0-2.74-2.59-4.25-6.41-4.25Z"/></g></svg>